<svg width="30" height="22" viewBox="0 0 30 22" fill="none" xmlns="http://www.w3.org/2000/svg">
<path d="M28.9094 18.6921H11.9201C11.31 18.6921 10.8293 19.1728 10.8293 19.7828C10.8293 20.3929 11.31 20.8735 11.9201 20.8735H28.9094C29.5195 20.8735 30.0001 20.3929 30.0001 19.7828C30.0001 19.1728 29.501 18.6921 28.9094 18.6921Z" fill="#FDC70C"/>
<path d="M28.9094 10.7982H11.9201C11.31 10.7982 10.8293 11.2789 10.8293 11.889C10.8293 12.499 11.31 12.9797 11.9201 12.9797H28.9094C29.5195 12.9797 30.0001 12.499 30.0001 11.889C30.0001 11.2789 29.501 10.7982 28.9094 10.7982Z" fill="#FDC70C"/>
<path d="M6.17063 8.21011L3.10182 11.3344L1.90019 10.0403C1.49348 9.59662 0.809467 9.57813 0.365785 9.98484C-0.0778977 10.3916 -0.096385 11.0756 0.310324 11.5192L2.28841 13.6452C2.30689 13.6637 2.30689 13.6637 2.32538 13.6637L2.34387 13.6822L2.36235 13.7007C2.47327 13.7931 2.5842 13.8671 2.69512 13.9225C2.7136 13.9225 2.7136 13.9225 2.7136 13.9225C2.9909 14.0334 3.24972 14.015 3.50853 13.9225C3.52702 13.9225 3.54551 13.904 3.56399 13.8856C3.58248 13.8671 3.60097 13.8486 3.61945 13.8486L3.67491 13.8301C3.73037 13.7931 3.80432 13.7561 3.8413 13.7192C3.8413 13.7192 3.8413 13.7007 3.85978 13.7007L3.89676 13.6822L7.76049 9.74452C7.96384 9.54116 8.07476 9.26386 8.07476 8.96807C8.07476 8.67228 7.96384 8.39498 7.742 8.21011C7.27983 7.76643 6.59582 7.78492 6.17063 8.21011Z" fill="#FDC70C"/>
<path d="M11.9201 5.08586H28.9094C29.5195 5.08586 30.0001 4.6052 30.0001 3.99514C30.0001 3.38507 29.5195 2.90442 28.9094 2.90442H11.9201C11.31 2.90442 10.8293 3.38507 10.8293 3.99514C10.8293 4.6052 11.31 5.08586 11.9201 5.08586Z" fill="#FDC70C"/>
<path d="M6.92852 0.00198076C6.63273 0.00198076 6.35543 0.112899 6.15207 0.33474L3.08327 3.45901L1.88163 2.16493C1.47492 1.72125 0.790912 1.70276 0.347229 2.10947C-0.0964532 2.51618 -0.114939 3.20019 0.29177 3.64388L2.26985 5.76985C2.28834 5.78834 2.28834 5.78834 2.30683 5.78834L2.32531 5.80682C2.32531 5.80682 2.3438 5.80682 2.3438 5.82531C2.45472 5.91775 2.56564 5.99169 2.67656 6.04716C2.69505 6.04716 2.69505 6.04716 2.69505 6.04716C2.97235 6.13959 3.23116 6.13959 3.48998 6.04716C3.50847 6.04716 3.52695 6.02867 3.54544 6.01018C3.56393 5.99169 3.58241 5.9732 3.6009 5.9732L3.65636 5.95472C3.71182 5.91775 3.78577 5.88077 3.82274 5.8438C3.82274 5.8438 3.82274 5.8438 3.84123 5.82531L3.8782 5.80682L7.72345 1.86915C7.9268 1.66579 8.03772 1.38849 8.03772 1.0927C8.03772 0.796911 7.9268 0.538095 7.70496 0.33474C7.50161 0.0944123 7.22431 -0.016506 6.92852 0.00198076Z" fill="#FDC70C"/>
<path d="M3.36048 18.156C2.47311 18.156 1.73364 18.877 1.73364 19.7828C1.73364 20.6887 2.45463 21.4096 3.36048 21.4096C4.26633 21.4096 4.98731 20.6887 4.98731 19.7828C4.98731 18.877 4.24784 18.156 3.36048 18.156Z" fill="#FDC70C"/>
</svg>
