<svg xmlns="http://www.w3.org/2000/svg" viewBox="0 0 100 100"><defs><style>.cls-1{fill:#fff;}</style></defs><g id="Layer_2" data-name="Layer 2"><g id="Layer_1-2" data-name="Layer 1"><path class="cls-1" d="M0,87V13c1.68.06,3.58-.35,5,.28,4.71,2.08,9.27,4.5,13.85,6.87,4.1,2.14,8.05,5.16,12.93.67,2.12,16,9.7,28.36,18.89,40,3.35,4.23,7.18,4.4,10.39.32,8.58-11,15.93-22.56,18.58-36.57.25-1.33.83-3.09,1.84-3.7,4.84-2.91,9.84-5.59,14.9-8.11.92-.46,2.39.16,3.61.28V87L77,100H74c-7.54-3.69-15.08-7.4-22.65-11A3,3,0,0,0,49,89c-7,3.62-14,7.34-21,11H24a47.28,47.28,0,0,0-4.34-2.88C13.14,93.7,6.56,90.37,0,87Z"/><path class="cls-1" d="M61,0c2.66,1.6,5.58,2.88,7.93,4.85C74.76,9.72,77,16.24,75.75,23.64,73.51,37,66.28,48,58.08,58.35c-.56.71-3.6.69-4.18,0-8.19-10.18-15.27-21-17.61-34.19-1.78-9.95,3-18.51,12.23-22.72C49.38,1,50.17.47,51,0ZM55.92,29.93a7.93,7.93,0,1,0-7.85-8A8,8,0,0,0,55.92,29.93Z"/></g></g></svg>