<svg width="21" height="30" viewBox="0 0 21 30" fill="none" xmlns="http://www.w3.org/2000/svg">
<path d="M10.4725 30L9.52848 28.5007C8.9732 27.6308 8.43643 26.7794 7.89965 25.9279C6.60399 23.8919 5.40088 21.9669 4.16075 20.0234C3.2723 18.6167 2.34683 17.1545 1.4954 15.6367C-0.540632 12.0459 -0.503613 8.3255 1.64348 4.90126C3.80908 1.42149 7.15928 -0.262859 11.3239 0.0332909C14.8222 0.292422 17.9132 2.32846 19.5976 5.51207C21.2634 8.64016 21.2264 12.2865 19.5236 15.285C17.7837 18.3206 15.8772 21.3006 14.0448 24.1881C13.2304 25.4652 12.3789 26.7979 11.5645 28.112C11.546 28.1491 11.5275 28.1861 11.4905 28.2601L10.4725 30ZM10.4169 2.16187C7.41841 2.16187 5.10473 3.45753 3.49442 6.04884C1.77304 8.80674 1.75453 11.6757 3.40187 14.5817C4.23479 16.0439 5.14175 17.4876 6.01169 18.8944C7.23331 20.8379 8.45494 22.7628 9.73208 24.7989C9.9727 25.169 10.1948 25.5392 10.4354 25.9094C11.0463 24.9469 11.6571 23.9844 12.2494 23.059C14.0818 20.19 15.9697 17.21 17.6911 14.23C19.0423 11.8978 19.0608 9.02886 17.7467 6.5486C16.414 4.03132 13.9707 2.40249 11.2128 2.2174C10.9352 2.18038 10.6576 2.16187 10.4169 2.16187ZM10.4539 15.5627C7.62201 15.5627 5.28983 13.2675 5.27132 10.4356C5.25281 9.04737 5.80809 7.7332 6.8076 6.73369C7.80711 5.73419 9.12127 5.19741 10.491 5.21592C13.3229 5.21592 15.6366 7.54811 15.6181 10.3986C15.6181 13.2305 13.3044 15.5442 10.4539 15.5627ZM10.4354 7.3445C9.63954 7.3445 8.89916 7.65916 8.30686 8.23295C7.71456 8.82525 7.3999 9.58414 7.3999 10.3986C7.41841 12.0274 8.7881 13.3971 10.4354 13.3971C12.0643 13.3971 13.4525 12.0089 13.4525 10.38C13.4525 8.75121 12.0828 7.3445 10.4539 7.3445C10.4539 7.3445 10.4539 7.3445 10.4354 7.3445Z" fill="white"/>
</svg>
