<svg width="21" height="30" viewBox="0 0 21 30" fill="none" xmlns="http://www.w3.org/2000/svg">
<path d="M10.4528 30C8.37848 26.7034 6.41533 23.629 4.4707 20.5361C3.47061 18.9249 2.45199 17.3321 1.52598 15.6838C-0.529771 12.0724 -0.529772 8.42388 1.65562 4.90503C3.85953 1.36766 7.2117 -0.262125 11.3788 0.0341997C18.7313 0.571288 23.2503 8.86837 19.5832 15.2764C16.7867 20.1472 13.6753 24.8143 10.712 29.5926C10.638 29.6666 10.6009 29.7407 10.4528 30ZM10.4528 14.9615C12.953 14.9615 15.0273 12.8873 15.0273 10.387C15.0273 7.88679 12.9715 5.794 10.4713 5.77548C7.95251 5.75696 5.82268 7.86828 5.8412 10.4056C5.87824 12.9243 7.95251 14.9801 10.4528 14.9615Z" fill="#FDC70C"/>
</svg>
