<svg width="31" height="30" viewBox="0 0 31 30" fill="none" xmlns="http://www.w3.org/2000/svg">
<path d="M30.0185 15.0001C29.9444 23.3704 23.2963 30.0185 14.9815 30C6.5927 29.9814 -0.0368824 23.2593 0.000154425 14.963C0.0371912 6.55567 6.77789 -0.0368815 15.0741 0.000155287C23.2407 0.0371921 29.9074 6.55567 30.0185 15.0001ZM27.7778 15.0186C27.9259 8.01862 21.963 2.18533 14.9815 2.18533C8.01862 2.18533 2.20384 8.01862 2.18533 14.9445C2.16681 21.9074 7.92603 27.7963 14.963 27.8148C22.037 27.8333 27.9074 21.9074 27.7778 15.0186Z" fill="white"/>
<path d="M15.0371 17.9259C16.426 17.9259 17.8149 17.8704 19.2038 17.9445C21.4075 18.0371 22.963 19.1667 23.8889 21.1667C24.1852 21.7963 24.1111 22.2963 23.6112 22.8333C21.5556 24.9815 19.0741 26.2777 16.0927 26.537C12.2779 26.8703 9.09273 25.574 6.42608 22.8704C5.85201 22.2963 5.77793 21.7407 6.12978 21.0556C7.09274 19.1296 8.62977 18.0185 10.7964 17.9445C12.2038 17.8704 13.6297 17.9259 15.0371 17.9259Z" fill="white"/>
<path d="M14.963 16.7038C12.1482 16.7038 9.79636 14.3334 9.85192 11.5927C9.90747 8.75937 12.1852 6.46309 14.9815 6.46309C17.7963 6.44457 20.1481 8.83345 20.1481 11.6668C20.1296 14.426 17.7963 16.7223 14.963 16.7038Z" fill="white"/>
</svg>
