<svg xmlns="http://www.w3.org/2000/svg" viewBox="0 0 99.73 91.92"><defs><style>.cls-1{fill:#fdc700;}</style></defs><g id="Layer_2" data-name="Layer 2"><g id="Layer_1-2" data-name="Layer 1"><path class="cls-1" d="M0,83.88c2.92,3,6.67,4.2,10.6,5a162.36,162.36,0,0,0,41.14,2.78c17.7-1,29.2-9.44,33.69-24a46.43,46.43,0,0,0,2.21-14.23,7.25,7.25,0,0,1,2.93-6.22c7.71-6.7,6.57-17.46-2.12-22.65-10.83-6.46-22.17,0-22.53,13.11C65.61,49,60.42,57.23,51.38,63.42,43.05,69.13,33.64,72.23,24,74.88c-8,2.18-16.28,2.89-24,6M99.73,6C94.79,3.18,92.36,3.6,89.14,8.36a48.94,48.94,0,0,0-3.79,7.47c-.46,1-1.67,2.47.39,3.19,1.51.52,1.87-.71,2.35-1.83,1.45-3.4,3.49-6,7.81-5.26,1.69.3,2.48-1.42,3.83-1.92M73.85,11.82a20.83,20.83,0,0,0,.45,3.94c.29,1-.37,3.14,1.67,2.89,1.87-.24,1.22-2,1.16-3.25-.18-3.52.43-6.58,4.22-8.09A3.63,3.63,0,0,0,83.69,2.9,3.63,3.63,0,0,0,80.54.1a4.2,4.2,0,0,0-4.63,2.14C74.17,5,73.9,8.15,73.85,11.82Z"/><path class="cls-1" d="M0,80.89c7.73-3.12,16.05-3.83,24-6,9.63-2.65,19-5.75,27.37-11.46,9-6.19,14.23-14.41,14.54-25.75.36-13.16,11.7-19.57,22.53-13.11,8.69,5.19,9.83,16,2.12,22.65a7.25,7.25,0,0,0-2.93,6.22,46.43,46.43,0,0,1-2.21,14.23c-4.49,14.54-16,23-33.69,24A162.36,162.36,0,0,1,10.6,88.86c-3.93-.78-7.68-2-10.6-5Z"/><path class="cls-1" d="M99.73,10c-1.35.5-2.14,2.22-3.83,1.92-4.32-.76-6.36,1.86-7.81,5.26-.48,1.12-.84,2.35-2.35,1.83-2.06-.72-.85-2.17-.39-3.19a48.94,48.94,0,0,1,3.79-7.47C92.36,3.6,94.79,3.18,99.73,6Z"/><path class="cls-1" d="M73.85,11.82c.05-3.67.32-6.8,2.06-9.58A4.2,4.2,0,0,1,80.54.1a3.63,3.63,0,0,1,3.15,2.8,3.63,3.63,0,0,1-2.34,4.41c-3.79,1.51-4.4,4.57-4.22,8.09.06,1.26.71,3-1.16,3.25-2,.25-1.38-1.84-1.67-2.89A20.83,20.83,0,0,1,73.85,11.82Z"/></g></g></svg>