<svg xmlns="http://www.w3.org/2000/svg" viewBox="0 0 400.91 186.15"><defs><style>.cls-1{fill:#fdc700;}.cls-2{fill:#fff;}</style></defs><g id="Layer_2" data-name="Layer 2"><g id="Layer_1-2" data-name="Layer 1"><path class="cls-1" d="M138.14,72.7l20.25-2.8q1.74,7.16,13.76,7.15,10,0,10-3.9a2.9,2.9,0,0,0-1.93-2.63c-1.28-.63-4.33-1.27-9.13-1.91q-19.92-2.81-24.88-8.74a20.13,20.13,0,0,1-4.95-13.21,19.56,19.56,0,0,1,8.36-16.4Q157.94,24,171.5,24q23.79,0,30.35,17.33L182.43,45q-2.7-5.85-11.38-5.85a12.93,12.93,0,0,0-6.14,1.14c-1.35.75-2,1.5-2,2.24q0,3.24,6.17,4,16.08,1.8,21.8,3.68a20.73,20.73,0,0,1,9.77,6.89,18.58,18.58,0,0,1,4.05,12.08,20,20,0,0,1-9,17.22q-9,6.38-24.72,6.37Q144.44,92.76,138.14,72.7Z"/><path class="cls-1" d="M236.17,2.76V91.4H210.52V2.76Z"/><path class="cls-1" d="M309.71,25.36v66H286V80.55q-5.22,12.21-20.32,12.21-9.33,0-14.43-5.23t-5.11-15V25.36h25.65V66.92q0,3.89,1.06,5.48c.7,1.07,2.09,1.59,4.15,1.59a6.72,6.72,0,0,0,5.33-2.36A9.85,9.85,0,0,0,284.38,65V25.36Z"/><path class="cls-1" d="M370.7,28.65a26.77,26.77,0,0,1,2.6,1.52,18.74,18.74,0,0,1,6.38,6.8,17.71,17.71,0,0,1,1.83,8q0,10.13-7.94,15.23T352,65.29c-.22,0-1.33,0-3.34-.13l-3-.13c-4.16,0-6.24,1.09-6.24,3.25,0,1.91,1.85,2.92,5.53,3l21,.91q11.52.53,16.88,6.49a20.25,20.25,0,0,1,5.37,14q0,9.48-8,15.48t-31.14,6q-35.69,0-35.69-16.56,0-9,9.46-12.6-6.12-4.35-6.11-10.32,0-9.75,12.54-14.68-10.49-4.61-10.48-15.32,0-9.81,8.48-15.26T350.58,24a45.15,45.15,0,0,1,12.18,1.63A42.77,42.77,0,0,1,370.7,28.65ZM344.09,90.54c-.94-.05-1.88-.07-2.83-.07q-6.61,0-6.62,4.16,0,3.84,5.05,5a66,66,0,0,0,13.47,1.1q8,0,10.25-1.36a4.2,4.2,0,0,0,2.28-3.76,4,4,0,0,0-1-2.83c-.68-.75-2.31-1.2-4.88-1.33ZM350.65,53q7.46,0,7.46-8,0-8.19-7.65-8.19t-7.59,8.31Q342.87,53,350.65,53Z"/><path class="cls-2" d="M42.88,158.17l21.86,1.88a29.72,29.72,0,0,1-9.61,18.83q-8.07,7.27-21.44,7.27-15,0-24.33-9.51T0,152.26q0-15.19,9.29-25t24.14-9.84q13.18,0,21.48,7.44a28.5,28.5,0,0,1,9.51,18.8L42,145.51q-1.41-10.45-7.84-10.46a6.3,6.3,0,0,0-6,3.8q-1.9,3.79-1.9,13.21,0,8.13,1.9,12A6.71,6.71,0,0,0,34.72,168Q41.59,168,42.88,158.17Z"/><path class="cls-2" d="M135.06,184.79H110.63a44.23,44.23,0,0,1-.9-9.22q-6.93,10.59-21,10.58-11.56,0-17.33-6a19.21,19.21,0,0,1-5.75-13.7q0-10.46,9.42-16.91t33.4-7.76v-1.5c0-2.9-.66-4.82-2-5.78a9.75,9.75,0,0,0-5.76-1.42q-8.87,0-9.9,7.2l-23.4-2.2q5-20.72,34.14-20.72A62.26,62.26,0,0,1,116.1,119a24.28,24.28,0,0,1,10.48,5,17.24,17.24,0,0,1,5.17,7.14q1.32,3.76,1.32,14.48v26.37A37,37,0,0,0,135.06,184.79Zm-26.61-30.91q-16.4,1.76-16.39,10.59,0,6,6.49,6a10.38,10.38,0,0,0,7-2.47q2.91-2.46,2.9-10.9Z"/><path class="cls-2" d="M182.63,158.17l21.86,1.88a29.77,29.77,0,0,1-9.61,18.83q-8.07,7.27-21.45,7.27-15,0-24.33-9.51t-9.35-24.38q0-15.19,9.29-25t24.14-9.84q13.17,0,21.47,7.44a28.47,28.47,0,0,1,9.52,18.8l-22.44,1.88q-1.41-10.45-7.84-10.46a6.29,6.29,0,0,0-6,3.8q-1.9,3.79-1.9,13.21,0,8.13,1.9,12a6.7,6.7,0,0,0,6.58,3.89Q181.35,168,182.63,158.17Z"/><path class="cls-2" d="M274.75,184.79H249.09V145.05q0-5.45-1.18-7.5t-4.57-2a7,7,0,0,0-4.58,1.59,5.78,5.78,0,0,0-2.27,3.28,48.48,48.48,0,0,0-.32,7.07v37.34H210.52V91.4h25.65v35.15a21.7,21.7,0,0,1,18.13-9.16,23.4,23.4,0,0,1,9.93,2,16.72,16.72,0,0,1,6.59,5.1,18.28,18.28,0,0,1,3.12,6q.81,2.93.81,11.3Z"/><path class="cls-2" d="M328.35,161.09l23.92,1.62q-2.13,9.75-10.83,16.59t-23.57,6.85q-16.51,0-26.36-9.64a32.17,32.17,0,0,1-9.83-23.92q0-14.81,9.71-25t25.91-10.2q15.68,0,25.36,9.61t9.67,26.17c0,.91,0,2.17-.06,3.77H308.49q.12,6.23,2.18,9.25t7.85,3Q326.88,169.21,328.35,161.09ZM326.62,144c-.05-4.46-.93-7.46-2.66-9a9.34,9.34,0,0,0-6.44-2.31q-9.11,0-9.1,11.3Z"/><path class="cls-1" d="M400.25,20.62a5.26,5.26,0,0,1-2.76,2.47,5.19,5.19,0,0,1-2.58.35c-1.48-.21-2.68-1.2-4.16-1.48a7.32,7.32,0,0,0-3.51.19,13.81,13.81,0,0,0-5.84,4.18c-1.12,1.21-2.15,2.63-3.85,1.26-2.33-1.87-.1-3.18,1-4.28a66.82,66.82,0,0,1,8.3-7.85c2.23-1.64,5-3.47,7.94-3a8.34,8.34,0,0,1,5.59,3.64,4.37,4.37,0,0,1,.07,4.21Z"/><path class="cls-1" d="M365.57,12.88c1.37-4.31,3.47-8.54,7.05-11.36A5.72,5.72,0,0,1,379.56.9c1.86,1.12,3.08,2.8,2.76,5a5,5,0,0,1-5,4.61c-5.56.19-7.74,3.84-9.14,8.45-.49,1.64-.47,4.19-3,3.64a1.69,1.69,0,0,1-1.44-1.2c-.39-1.95.7-4.41,1.2-6.28C365.12,14.39,365.33,13.63,365.57,12.88Z"/></g></g></svg>