<svg xmlns="http://www.w3.org/2000/svg" viewBox="0 0 201.71 295.55"><defs><style>.cls-1{fill:#173e6b;}.cls-2{fill:#fdc70c;}</style></defs><g id="Layer_2" data-name="Layer 2"><g id="Layer_1-2" data-name="Layer 1"><path class="cls-1" d="M200.11,45.76A28.62,28.62,0,0,0,182.37,30a26.57,26.57,0,0,0-14.25-.17c0-.16.11-.32.16-.48,2.58-8.69-.42-17.6-8-23.82-8.07-6.6-18.48-7.3-27.86-1.87-8.94,5.18-16.11,13.53-21.91,25.53-.73,1.52-1.46,3.13-2.17,4.81-.24.55-.6,1.3-1,2.1a56.34,56.34,0,0,0-2.55,5.85A86.24,86.24,0,0,0,19.52,71.25,85.76,85.76,0,0,0,0,123.82c-.31,15.8,3.89,31.26,12.46,46C23.07,188,33.79,206.46,44.16,224.36q7.26,12.54,14.53,25.07L70,268.85l15.52,26.7,11-17.56.58-.92c.45-.71.82-1.3,1.16-1.89q8.53-14.71,17.09-29.43c14.82-25.52,30.14-51.91,45.15-77.91,10.32-17.89,13.72-37.09,10.13-57.08a86.57,86.57,0,0,0-14.74-35.12l.32-.26.51-.42c1.08-.87,4.35-3.53,6.56-3.87a2.07,2.07,0,0,1,.82,0c.26.15.73.46,1.1.69a26.68,26.68,0,0,0,7.22,3.57,23.12,23.12,0,0,0,24.77-8.53l0,0c.27-.37.54-.74.78-1.1A21,21,0,0,0,200.11,45.76Z"/><path class="cls-2" d="M85.89,272.21,69.5,244q-23.1-39.84-46.22-79.67c-7.11-12.21-11-25.22-10.76-39.43a73.46,73.46,0,0,1,145.77-11.09,70,70,0,0,1-8.66,48.62q-31,53.73-62.22,107.32C87,270.47,86.55,271.15,85.89,272.21Zm0-112.18c19.41-.18,34.29-15.26,34.09-34.57-.17-18-15.86-33.16-34-33A33.92,33.92,0,0,0,52,127C52.09,145.09,67.6,160.2,85.85,160Z"/><path class="cls-2" d="M187.14,60.25a10.64,10.64,0,0,1-11.2,4c-2.82-.84-4.88-3.1-7.69-4.06a14.56,14.56,0,0,0-6.9-.61c-4.73.72-8.89,3.55-12.54,6.51-2.53,2-4.92,4.52-7.86,1.38-4-4.29.7-6.22,3.07-8.08,5.91-4.61,11.8-9.46,18.37-13,4.82-2.57,10.77-5.36,16.33-3.66a16.36,16.36,0,0,1,9.86,8.64,8.63,8.63,0,0,1-1,8.24C187.42,59.87,187.28,60.06,187.14,60.25Z"/><path class="cls-2" d="M121.73,35.46c3.87-8,9.15-15.66,16.92-20.15,4.62-2.68,9.37-2.81,13.68.72,3.31,2.71,5.24,6.33,4,10.59-1.58,5.3-5.54,8.16-11.11,7.56C134.31,33,129,39.51,125,48.1c-1.43,3.06-2.09,8-6.82,6.25a3.27,3.27,0,0,1-2.47-2.74c-.23-3.92,2.59-8.4,4.08-11.91C120.41,38.29,121.05,36.87,121.73,35.46Z"/></g></g></svg>